<svg xmlns="http://www.w3.org/2000/svg" xml:space="preserve" width="1500" height="1500" viewBox="0 0 1500 1500" data-version="1" data-id="lg_UjVNSftU2GG84GYFWo" x="0" y="0"><rect width="1500" height="1500" id="background" stroke="transparent" fill="#ffffff"></rect><g id="outer-wrapper" data-padding="20" transform="matrix(1.7857142857142858,0,0,1.7857142857142858,-589.2857142857144,-589.2857142857144)"><g id="inner-wrapper" transform="matrix(0.9642857142857143,0,0,0.9642857142857143,10,3.607142857142861)"><path fill="#f27303" d="M603.5990413923163 678.6550370370371A25.376 25.376 0 0 1 644.3980413923163 695.5390370370371A25.31 25.31 0 0 0 666.4730413923163 717.6140370370371A25.376 25.376 0 0 1 683.3570413923163 758.438037037037A25.45 25.45 0 0 0 683.3570413923163 789.6610370370371A25.376 25.376 0 0 1 666.4730413923163 830.4600370370371A25.31 25.31 0 0 0 644.3980413923163 852.535037037037A25.376 25.376 0 0 1 603.5740413923163 869.419037037037A25.45 25.45 0 0 0 572.3510413923162 869.419037037037A25.376 25.376 0 0 1 531.5520413923163 852.535037037037A25.45 25.45 0 0 0 509.47704139231627 830.4600370370371A25.376 25.376 0 0 1 492.59304139231625 789.6360370370371A25.45 25.45 0 0 0 492.59304139231625 758.413037037037A25.376 25.376 0 0 1 509.47704139231627 717.6140370370371A25.31 25.31 0 0 0 531.5520413923163 695.5390370370371A25.376 25.376 0 0 1 572.3760413923162 678.6550370370371A25.45 25.45 0 0 0 603.5990413923163 678.6550370370371 "></path><rect width="327.836" height="183.518" x="203.19704139231624" y="282.27803703703694" fill="none" rx="0" ry="0" transform="translate(516.58 400.02)"></rect><path fill="#0074d9" d="M771.6450413923162 723.0170370370371H767.8350413923163Q759.1150413923162 723.0170370370371 758.1550413923162 726.5070370370371Q757.6850413923162 728.177037037037 757.6850413923162 750.0570370370372V779.7170370370371L757.6050413923163 783.6070370370371V787.5670370370372L757.5250413923162 791.457037037037V795.4170370370371L757.4450413923163 800.5770370370371V804.457037037037Q757.4450413923163 812.707037037037 759.7450413923162 814.6470370370371Q762.0450413923163 816.5970370370371 770.9250413923163 816.5970370370371L772.1950413923163 816.5170370370371Q788.7650413923162 816.5170370370371 798.6850413923163 805.5670370370372Q803.6750413923163 800.0970370370371 806.5350413923163 791.2570370370371Q809.3850413923163 782.4170370370371 809.3850413923163 773.2970370370372V767.5870370370371Q809.3850413923163 759.1070370370371 806.8450413923163 750.2170370370371Q801.6150413923162 732.2970370370372 786.1550413923163 725.7170370370371Q779.8850413923163 723.0170370370372 771.6450413923163 723.0170370370372M769.8950413923163 714.4570370370371H774.0150413923163Q813.7450413923164 714.5370370370372 826.2750413923163 745.4670370370371Q830.4050413923163 755.6170370370371 830.4050413923163 766.9570370370371V769.1770370370372Q830.4050413923163 782.3370370370371 826.0350413923163 792.8070370370372Q817.4750413923163 813.2670370370372 795.9050413923163 821.5870370370371Q785.9950413923162 825.3970370370371 774.0150413923163 825.3970370370371H768.0750413923163L766.0850413923163 825.3170370370372L762.0450413923163 825.2370370370372Q760.0650413923163 825.1570370370372 758.0050413923162 825.1570370370372L746.3450413923163 824.9170370370372Q728.5850413923163 824.9170370370372 728.5850413923163 822.3070370370372Q728.5850413923163 819.6870370370372 731.9950413923162 817.9470370370371Q737.8550413923163 814.9270370370372 738.7350413923162 813.1870370370372Q740.6350413923162 809.5370370370372 740.6350413923162 796.5270370370372V758.9470370370371L740.4750413923163 748.8770370370371L740.3150413923162 740.8670370370371Q740.3150413923162 730.2370370370372 738.4550413923162 727.3870370370371Q736.5950413923161 724.5270370370372 732.5050413923162 722.8270370370371Q728.4250413923162 721.1170370370371 728.4250413923162 718.5770370370371Q728.4250413923162 715.5670370370372 740.5550413923162 715.5670370370372L748.1650413923162 715.4070370370371L750.0750413923163 715.2470370370371L751.9750413923163 715.1670370370371Q769.1050413923163 714.4570370370371 769.8950413923162 714.4570370370371M884.9550413923162 775.3570370370371Q878.6150413923162 775.3570370370371 878.6150413923162 793.5170370370372Q878.6150413923162 803.0370370370372 880.0450413923162 808.3070370370372Q881.4650413923162 813.5770370370371 882.4250413923162 815.2470370370372L883.8450413923161 817.1470370370371Q885.7550413923161 819.7670370370372 885.7550413923161 820.4770370370371Q885.7550413923161 823.177037037037 881.7850413923161 824.1270370370371Q877.8250413923162 825.0770370370371 862.9950413923161 825.0770370370371T848.1650413923161 821.9870370370371Q848.1650413923161 819.927037037037 852.7650413923161 816.7570370370371Q857.3650413923161 813.5770370370371 858.4350413923162 807.3570370370371Q859.5050413923161 801.1270370370371 859.5050413923161 769.9670370370371Q859.5050413923161 738.7970370370372 858.2750413923161 732.7370370370371Q857.0450413923161 726.6670370370371 854.0350413923161 723.5770370370371L852.1250413923161 721.8270370370371Q848.7950413923161 718.8170370370372 848.7950413923161 718.2670370370371Q848.7950413923161 714.1370370370371 863.7050413923162 714.1370370370371L867.2750413923161 714.217037037037H871.0050413923161Q886.5450413923161 714.217037037037 886.5450413923161 717.5470370370371Q886.5450413923161 719.1370370370371 884.0450413923161 722.307037037037T880.9950413923161 727.6170370370371Q878.9350413923162 735.1570370370371 878.9350413923162 755.5370370370371Q878.9350413923162 763.937037037037 882.1050413923161 763.937037037037Q883.3750413923161 763.937037037037 886.7850413923161 761.247037037037Q894.5550413923161 755.1370370370371 905.1050413923161 742.4070370370371Q915.6450413923161 729.687037037037 915.6450413923161 724.7670370370371L915.4850413923161 722.6270370370371L915.0150413923161 720.6370370370371L914.6150413923161 718.7370370370371Q914.6150413923161 716.197037037037 917.5550413923162 715.4070370370371Q920.4850413923161 714.6170370370371 929.6050413923161 714.6170370370371Q943.5650413923162 714.6170370370371 943.5650413923162 718.5770370370371Q943.5650413923162 719.5270370370371 935.5150413923162 725.2770370370371T920.3250413923162 738.6470370370371Q903.1150413923162 756.957037037037 903.1150413923162 762.747037037037Q903.1150413923162 765.9170370370371 928.9750413923163 799.6270370370371Q935.3950413923162 807.947037037037 942.6850413923163 814.257037037037Q949.9850413923162 820.557037037037 949.9850413923162 821.507037037037Q949.9850413923162 825.1570370370371 935.0750413923163 825.1570370370371H931.5850413923163Q923.4150413923163 825.1570370370371 920.7250413923163 822.6570370370371Q918.0250413923162 820.1670370370371 916.2850413923162 815.6470370370371Q912.5550413923162 805.967037037037 901.3750413923162 790.6670370370371Q890.1950413923163 775.357037037037 884.9550413923163 775.357037037037M1014.7750413923163 726.747037037037Q1008.2650413923163 722.3070370370369 1000.1450413923163 722.3070370370369Q992.0150413923163 722.3070370370369 986.8550413923164 726.547037037037Q981.7050413923164 730.797037037037 981.7050413923164 738.447037037037T989.3950413923164 751.967037037037Q993.9950413923165 755.537037037037 1008.1950413923164 761.637037037037Q1022.3850413923165 767.747037037037 1027.9350413923164 772.897037037037Q1038.5650413923163 782.737037037037 1038.5650413923163 793.3570370370369V796.217037037037Q1038.5650413923163 809.377037037037 1028.0950413923165 817.627037037037Q1023.2550413923163 821.427037037037 1016.0450413923164 823.687037037037Q1008.8250413923164 825.947037037037 1001.6050413923164 825.947037037037H998.6750413923164Q982.3350413923164 825.947037037037 970.0450413923164 821.037037037037Q964.4950413923165 818.8170370370369 964.4950413923165 808.907037037037V806.127037037037Q964.4950413923165 794.387037037037 968.5450413923164 794.387037037037Q971.3150413923164 794.387037037037 976.0750413923164 801.927037037037Q980.8350413923164 809.457037037037 987.0550413923164 813.267037037037Q993.2850413923164 817.0670370370369 1002.0850413923164 817.0670370370369T1016.2750413923164 812.427037037037Q1021.6750413923164 807.787037037037 1021.6750413923164 800.977037037037Q1021.6750413923164 791.617037037037 1012.9450413923164 785.187037037037Q1009.2250413923164 782.497037037037 994.2350413923164 775.5570370370369T973.4550413923164 762.5870370370369Q965.5250413923164 754.3470370370369 965.5250413923164 742.447037037037Q965.5250413923164 730.5570370370369 974.0150413923164 722.707037037037Q978.6950413923164 718.3470370370369 985.6650413923164 715.927037037037Q992.6450413923164 713.507037037037 999.9450413923164 713.507037037037H1002.8750413923163Q1005.8950413923163 713.507037037037 1011.4450413923164 714.537037037037L1014.2150413923164 715.0870370370369Q1019.1350413923163 716.047037037037 1019.5350413923164 716.1170370370369L1021.9850413923165 716.277037037037L1024.3650413923165 716.3570370370369Q1027.6950413923164 716.5970370370369 1029.0450413923163 717.157037037037Q1033.7250413923164 719.0570370370369 1033.7250413923164 730.397037037037T1029.2850413923163 741.737037037037Q1027.0650413923163 741.737037037037 1022.6250413923163 735.3870370370369Q1018.1850413923163 729.047037037037 1014.7750413923163 726.747037037037 "></path><rect width="56.407" height="127.69" x="338.9110413923163" y="310.19203703703715" fill="none" rx="0" ry="0" transform="translate(223.02 400.49)"></rect><path fill="#fff" d="M589.3250413923163 732.2370370370372H567.9650413923163V811.3370370370371H591.5850413923163Q599.6050413923163 811.3370370370371 604.9750413923163 808.677037037037Q610.3350413923163 806.0270370370372 612.9950413923164 800.8270370370371T615.6550413923163 788.1670370370371V757.6570370370371Q615.6550413923163 749.6370370370371 612.4850413923164 743.987037037037Q609.3250413923163 738.3370370370371 603.4450413923163 735.2870370370371Q597.5750413923163 732.237037037037 589.3250413923163 732.237037037037M589.7750413923163 801.727037037037H578.4750413923163V742.5170370370371H590.4550413923163Q595.6450413923162 742.5170370370371 598.8150413923163 744.217037037037Q601.9750413923163 745.9070370370371 603.5550413923163 748.957037037037Q605.1450413923162 752.0070370370371 605.1450413923162 756.3070370370372V789.2970370370372Q605.1450413923162 791.7870370370372 604.5250413923163 793.9870370370371Q603.8950413923162 796.197037037037 602.2650413923163 797.947037037037Q600.6250413923162 799.697037037037 597.6250413923162 800.717037037037Q594.6350413923162 801.727037037037 589.7750413923163 801.727037037037 " paint-order="stroke"></path></g><rect width="560" height="202" x="470" y="649" id="space-saver" fill="transparent" stroke="transparent"></rect></g></svg>