<svg xmlns="http://www.w3.org/2000/svg" xml:space="preserve" width="1500" height="202" viewBox="0 0 1500 202" data-version="1" data-id="lg_UjVNSftU2GG84GYFWo"><g id="outer-wrapper" data-padding="20" transform="matrix(1,0,0,1,0,0)"><g id="inner-wrapper" transform="matrix(0.9642857142857143,0,0,0.9642857142857143,10,3.607142857142861)"><path fill="#f27303" d="M603.5990413923163 5.617999999999995A25.376 25.376 0 0 1 644.3980413923163 22.50200000000001A25.31 25.31 0 0 0 666.4730413923163 44.577A25.376 25.376 0 0 1 683.3570413923163 85.40100000000001A25.45 25.45 0 0 0 683.3570413923163 116.62400000000002A25.376 25.376 0 0 1 666.4730413923163 157.423A25.31 25.31 0 0 0 644.3980413923163 179.498A25.376 25.376 0 0 1 603.5740413923163 196.382A25.45 25.45 0 0 0 572.3510413923162 196.382A25.376 25.376 0 0 1 531.5520413923163 179.498A25.45 25.45 0 0 0 509.47704139231627 157.423A25.376 25.376 0 0 1 492.59304139231625 116.59899999999999A25.45 25.45 0 0 0 492.59304139231625 85.37599999999998A25.376 25.376 0 0 1 509.47704139231627 44.577A25.31 25.31 0 0 0 531.5520413923163 22.50200000000001A25.376 25.376 0 0 1 572.3760413923162 5.617999999999995A25.45 25.45 0 0 0 603.5990413923163 5.617999999999995 "></path><rect width="327.836" height="183.518" x="203.19704139231624" y="-390.759" fill="none" rx="0" ry="0" transform="translate(516.58 400.02)"></rect><path fill="#0074d9" d="M771.6450413923162 49.98000000000002H767.8350413923163Q759.1150413923162 49.98000000000002 758.1550413923162 53.47000000000003Q757.6850413923162 55.14000000000004 757.6850413923162 77.02000000000004V106.68000000000006L757.6050413923163 110.57000000000005V114.53000000000003L757.5250413923162 118.42000000000002V122.38L757.4450413923163 127.54000000000002V131.42000000000002Q757.4450413923163 139.67000000000002 759.7450413923162 141.61Q762.0450413923163 143.56 770.9250413923163 143.56L772.1950413923163 143.48000000000002Q788.7650413923162 143.48000000000002 798.6850413923163 132.53000000000003Q803.6750413923163 127.06 806.5350413923163 118.22000000000003Q809.3850413923163 109.38000000000005 809.3850413923163 100.26000000000005V94.55000000000007Q809.3850413923163 86.07000000000005 806.8450413923163 77.18000000000006Q801.6150413923162 59.26000000000005 786.1550413923163 52.680000000000064Q779.8850413923163 49.980000000000075 771.6450413923163 49.980000000000075M769.8950413923163 41.42000000000007H774.0150413923163Q813.7450413923164 41.50000000000006 826.2750413923163 72.43000000000006Q830.4050413923163 82.58000000000004 830.4050413923163 93.92000000000007V96.1400000000001Q830.4050413923163 109.30000000000013 826.0350413923163 119.7700000000001Q817.4750413923163 140.23000000000008 795.9050413923163 148.55000000000007Q785.9950413923162 152.36000000000007 774.0150413923163 152.36000000000007H768.0750413923163L766.0850413923163 152.2800000000001L762.0450413923163 152.2000000000001Q760.0650413923163 152.12000000000012 758.0050413923162 152.12000000000012L746.3450413923163 151.8800000000001Q728.5850413923163 151.8800000000001 728.5850413923163 149.2700000000001Q728.5850413923163 146.6500000000001 731.9950413923162 144.91000000000008Q737.8550413923163 141.8900000000001 738.7350413923162 140.1500000000001Q740.6350413923162 136.5000000000001 740.6350413923162 123.49000000000007V85.91000000000008L740.4750413923163 75.84000000000009L740.3150413923162 67.8300000000001Q740.3150413923162 57.2000000000001 738.4550413923162 54.35000000000008Q736.5950413923161 51.490000000000066 732.5050413923162 49.79000000000008Q728.4250413923162 48.0800000000001 728.4250413923162 45.54000000000008Q728.4250413923162 42.530000000000086 740.5550413923162 42.530000000000086L748.1650413923162 42.37000000000006L750.0750413923163 42.210000000000036L751.9750413923163 42.13000000000005Q769.1050413923163 41.42000000000007 769.8950413923162 41.42000000000007M884.9550413923162 102.32000000000005Q878.6150413923162 102.32000000000005 878.6150413923162 120.48000000000008Q878.6150413923162 130.00000000000006 880.0450413923162 135.2700000000001Q881.4650413923162 140.54000000000008 882.4250413923162 142.2100000000001L883.8450413923161 144.11000000000007Q885.7550413923161 146.73000000000008 885.7550413923161 147.44000000000005Q885.7550413923161 150.14000000000004 881.7850413923161 151.09000000000003Q877.8250413923162 152.04000000000002 862.9950413923161 152.04000000000002T848.1650413923161 148.95000000000005Q848.1650413923161 146.89000000000004 852.7650413923161 143.72000000000003Q857.3650413923161 140.54000000000002 858.4350413923162 134.32000000000005Q859.5050413923161 128.09000000000003 859.5050413923161 96.93000000000006Q859.5050413923161 65.76000000000005 858.2750413923161 59.700000000000045Q857.0450413923161 53.63000000000005 854.0350413923161 50.54000000000002L852.1250413923161 48.79000000000002Q848.7950413923161 45.78000000000003 848.7950413923161 45.23000000000002Q848.7950413923161 41.10000000000002 863.7050413923162 41.10000000000002L867.2750413923161 41.18000000000001H871.0050413923161Q886.5450413923161 41.18000000000001 886.5450413923161 44.50999999999999Q886.5450413923161 46.099999999999966 884.0450413923161 49.26999999999998T880.9950413923161 54.579999999999984Q878.9350413923162 62.120000000000005 878.9350413923162 82.5Q878.9350413923162 90.89999999999998 882.1050413923161 90.89999999999998Q883.3750413923161 90.89999999999998 886.7850413923161 88.20999999999998Q894.5550413923161 82.09999999999997 905.1050413923161 69.37Q915.6450413923161 56.64999999999998 915.6450413923161 51.73000000000002L915.4850413923161 49.59000000000003L915.0150413923161 47.60000000000002L914.6150413923161 45.700000000000045Q914.6150413923161 43.160000000000025 917.5550413923162 42.37000000000006Q920.4850413923161 41.58000000000004 929.6050413923161 41.58000000000004Q943.5650413923162 41.58000000000004 943.5650413923162 45.54000000000002Q943.5650413923162 46.49000000000001 935.5150413923162 52.24000000000001T920.3250413923162 65.61000000000001Q903.1150413923162 83.92000000000002 903.1150413923162 89.70999999999998Q903.1150413923162 92.88 928.9750413923163 126.58999999999997Q935.3950413923162 134.90999999999997 942.6850413923163 141.21999999999997Q949.9850413923162 147.51999999999998 949.9850413923162 148.46999999999997Q949.9850413923162 152.11999999999995 935.0750413923163 152.11999999999995H931.5850413923163Q923.4150413923163 152.11999999999995 920.7250413923163 149.61999999999995Q918.0250413923162 147.12999999999994 916.2850413923162 142.60999999999996Q912.5550413923162 132.92999999999995 901.3750413923162 117.62999999999994Q890.1950413923163 102.31999999999994 884.9550413923163 102.31999999999994M1014.7750413923163 53.70999999999992Q1008.2650413923163 49.269999999999925 1000.1450413923163 49.269999999999925Q992.0150413923163 49.269999999999925 986.8550413923164 53.509999999999934Q981.7050413923164 57.759999999999934 981.7050413923164 65.40999999999991T989.3950413923164 78.9299999999999Q993.9950413923165 82.49999999999989 1008.1950413923164 88.59999999999991Q1022.3850413923165 94.70999999999992 1027.9350413923164 99.8599999999999Q1038.5650413923163 109.69999999999987 1038.5650413923163 120.31999999999988V123.1799999999999Q1038.5650413923163 136.33999999999992 1028.0950413923165 144.58999999999992Q1023.2550413923163 148.38999999999993 1016.0450413923164 150.64999999999992Q1008.8250413923164 152.9099999999999 1001.6050413923164 152.9099999999999H998.6750413923164Q982.3350413923164 152.9099999999999 970.0450413923164 147.9999999999999Q964.4950413923165 145.77999999999986 964.4950413923165 135.8699999999999V133.08999999999992Q964.4950413923165 121.34999999999991 968.5450413923164 121.34999999999991Q971.3150413923164 121.34999999999991 976.0750413923164 128.88999999999993Q980.8350413923164 136.4199999999999 987.0550413923164 140.2299999999999Q993.2850413923164 144.02999999999992 1002.0850413923164 144.02999999999992T1016.2750413923164 139.38999999999993Q1021.6750413923164 134.74999999999994 1021.6750413923164 127.93999999999994Q1021.6750413923164 118.57999999999993 1012.9450413923164 112.14999999999992Q1009.2250413923164 109.45999999999992 994.2350413923164 102.51999999999992T973.4550413923164 89.5499999999999Q965.5250413923164 81.30999999999989 965.5250413923164 69.40999999999991Q965.5250413923164 57.519999999999925 974.0150413923164 49.6699999999999Q978.6950413923164 45.30999999999989 985.6650413923164 42.88999999999993Q992.6450413923164 40.469999999999914 999.9450413923164 40.469999999999914H1002.8750413923163Q1005.8950413923163 40.469999999999914 1011.4450413923164 41.499999999999886L1014.2150413923164 42.0499999999999Q1019.1350413923163 43.00999999999988 1019.5350413923164 43.07999999999987L1021.9850413923165 43.239999999999895L1024.3650413923165 43.31999999999988Q1027.6950413923164 43.55999999999989 1029.0450413923163 44.11999999999989Q1033.7250413923164 46.01999999999987 1033.7250413923164 57.3599999999999T1029.2850413923163 68.69999999999987Q1027.0650413923163 68.69999999999987 1022.6250413923163 62.34999999999985Q1018.1850413923163 56.00999999999988 1014.7750413923163 53.709999999999866 "></path><rect width="56.407" height="127.69" x="338.9110413923163" y="-362.845" fill="none" rx="0" ry="0" transform="translate(223.02 400.49)"></rect><path fill="#fff" d="M589.3250413923163 59.19999999999999H567.9650413923163V138.29999999999995H591.5850413923163Q599.6050413923163 138.29999999999995 604.9750413923163 135.63999999999993Q610.3350413923163 132.98999999999995 612.9950413923164 127.7899999999999T615.6550413923163 115.12999999999988V84.61999999999989Q615.6550413923163 76.59999999999991 612.4850413923164 70.94999999999987Q609.3250413923163 65.2999999999999 603.4450413923163 62.249999999999886Q597.5750413923163 59.199999999999875 589.3250413923163 59.199999999999875M589.7750413923163 128.68999999999988H578.4750413923163V69.4799999999999H590.4550413923163Q595.6450413923162 69.4799999999999 598.8150413923163 71.1799999999999Q601.9750413923163 72.86999999999989 603.5550413923163 75.9199999999999Q605.1450413923162 78.96999999999991 605.1450413923162 83.26999999999992V116.25999999999993Q605.1450413923162 118.74999999999994 604.5250413923163 120.94999999999993Q603.8950413923162 123.15999999999991 602.2650413923163 124.90999999999991Q600.6250413923162 126.65999999999991 597.6250413923162 127.6799999999999Q594.6350413923162 128.68999999999988 589.7750413923163 128.68999999999988 " paint-order="stroke"></path></g><rect width="560" height="202" x="470" y="0" id="space-saver" fill="transparent" stroke="transparent"></rect></g></svg>